# Blender v2.83.0 OBJ File: ''
# www.blender.org
mtllib cube.mtl
o Cube_Cube.001
v -0.500000 0.368847 -0.131153
v -0.500000 0.179916 -0.179915
v -0.500000 0.179915 0.179916
v -0.500000 0.368846 0.131154
v 0.131153 0.368847 -0.500000
v 0.179916 0.179916 -0.500000
v -0.179916 0.179916 -0.500000
v -0.131153 0.368847 -0.500000
v 0.500000 0.368846 0.131154
v 0.500000 0.179915 0.179916
v 0.500000 0.179916 -0.179915
v 0.500000 0.368847 -0.131153
v 0.179916 0.500000 0.179916
v 0.368847 0.500000 0.131154
v 0.368847 0.500000 -0.131153
v 0.179916 0.500000 -0.179915
v -0.131153 0.500000 -0.368846
v -0.179916 0.500000 -0.179915
v 0.131153 0.500000 -0.368846
v -0.500000 0.131153 0.368847
v -0.500000 -0.179916 0.179915
v -0.500000 -0.131154 0.368846
v 0.500000 -0.179916 0.179915
v 0.500000 -0.368847 0.131153
v 0.500000 -0.368846 -0.131154
v 0.500000 -0.179915 -0.179916
v 0.179916 -0.179915 -0.500000
v 0.131153 -0.368846 -0.500000
v -0.131153 -0.368846 -0.500000
v -0.179916 -0.179915 -0.500000
v -0.500000 -0.179915 -0.179916
v -0.500000 -0.368846 -0.131154
v -0.500000 -0.368847 0.131153
v 0.368847 -0.500000 0.131153
v 0.179916 -0.500000 0.179915
v 0.179916 -0.500000 -0.179916
v 0.368847 -0.500000 -0.131154
v -0.368847 0.500000 -0.368846
v -0.368847 0.500000 -0.131153
v 0.131153 -0.500000 -0.368847
v -0.179916 -0.500000 -0.179916
v -0.131153 -0.500000 -0.368847
v -0.179916 -0.500000 0.179915
v -0.368847 -0.500000 0.131153
v -0.368847 -0.500000 -0.131154
v -0.368847 0.131154 -0.500000
v -0.368847 -0.131153 -0.500000
v 0.368847 0.131153 0.500000
v 0.368847 0.368846 0.500000
v 0.131153 0.368846 0.500000
v 0.179916 0.179915 0.500000
v -0.131153 0.368846 0.500000
v -0.179916 0.179915 0.500000
v 0.500000 0.131154 -0.368846
v 0.500000 0.368847 -0.368846
v 0.368847 -0.500000 -0.368847
v 0.500000 -0.131153 -0.368847
v -0.368847 0.368847 -0.500000
v 0.179916 -0.179916 0.500000
v 0.368847 -0.131154 0.500000
v -0.179916 -0.179916 0.500000
v -0.131153 -0.368847 0.500000
v 0.131153 -0.368847 0.500000
v -0.368847 -0.500000 0.368846
v -0.368847 -0.368847 0.500000
v -0.500000 -0.368847 0.368846
v -0.500000 0.368846 0.368847
v -0.368847 0.368846 0.500000
v -0.368847 0.500000 0.368847
v -0.500000 -0.368846 -0.368847
v -0.368847 -0.368846 -0.500000
v -0.368847 -0.500000 -0.368847
v -0.500000 0.368847 -0.368846
v 0.500000 -0.368847 0.368846
v 0.368847 -0.368847 0.500000
v 0.368847 -0.500000 0.368846
v 0.368847 0.500000 0.368847
v 0.500000 0.368846 0.368847
v 0.368847 -0.368846 -0.500000
v 0.500000 -0.368846 -0.368847
v 0.368847 0.500000 -0.368846
v 0.368847 0.368847 -0.500000
v -0.368847 -0.131154 0.500000
v -0.368847 0.131153 0.500000
v -0.368847 0.500000 0.131154
v -0.500000 -0.131153 -0.368847
v -0.500000 0.131154 -0.368846
v 0.368847 -0.131153 -0.500000
v 0.368847 0.131154 -0.500000
v 0.500000 -0.131154 0.368846
v 0.500000 0.131153 0.368847
v -0.131153 -0.500000 0.368846
v 0.131153 -0.500000 0.368846
v 0.131153 0.500000 0.368847
v -0.131153 0.500000 0.368847
v -0.179916 0.500000 0.179916
v 0.077559 0.470668 0.077559
v -0.077559 0.470668 0.077559
v -0.074116 0.449778 0.074116
v 0.074116 0.449778 0.074116
v -0.077559 -0.470668 0.077558
v 0.077559 -0.470668 0.077558
v 0.074116 -0.449778 0.074116
v -0.074116 -0.449778 0.074116
v -0.077559 -0.077559 0.470668
v -0.077559 0.077558 0.470668
v -0.074116 0.074116 0.449778
v -0.074116 -0.074116 0.449778
v 0.470668 -0.077559 0.077558
v 0.470668 0.077558 0.077559
v 0.449778 0.074116 0.074116
v 0.449778 -0.074116 0.074116
v 0.077559 -0.077558 -0.470668
v 0.077559 0.077559 -0.470668
v 0.074116 0.074116 -0.449778
v 0.074116 -0.074116 -0.449778
v -0.470668 -0.077558 -0.077559
v -0.470668 0.077559 -0.077558
v -0.449778 0.074116 -0.074116
v -0.449778 -0.074116 -0.074116
v 0.449778 0.161844 -0.161843
v 0.449778 -0.161843 -0.161844
v -0.161843 -0.449777 -0.161844
v -0.161843 -0.449778 0.161843
v -0.470668 0.077558 0.077559
v -0.449778 0.074116 0.074116
v 0.470668 0.077559 -0.077558
v 0.470668 -0.077558 -0.077559
v 0.449778 -0.074116 -0.074116
v 0.449778 0.074116 -0.074116
v -0.077559 -0.470668 -0.077559
v -0.074116 -0.449778 -0.074116
v -0.161843 0.161844 -0.449777
v -0.161843 -0.161843 -0.449778
v 0.161843 -0.161844 0.449777
v -0.161843 -0.161844 0.449777
v 0.161843 0.449777 0.161844
v -0.161843 0.449777 0.161844
v -0.077559 0.077559 -0.470668
v -0.077559 -0.077558 -0.470668
v -0.074116 -0.074116 -0.449778
v -0.074116 0.074116 -0.449778
v 0.077559 -0.077559 0.470668
v 0.074116 -0.074116 0.449778
v -0.052664 0.500000 0.052664
v 0.052664 0.500000 0.052664
v 0.052664 0.500000 -0.052664
v -0.052664 0.500000 -0.052664
v -0.449778 0.161843 0.161844
v -0.449778 -0.161844 0.161843
v 0.449778 -0.161844 0.161843
v 0.161843 -0.449778 0.161843
v -0.470668 -0.077559 0.077558
v -0.449778 -0.074116 0.074116
v 0.052664 -0.500000 0.052664
v -0.052664 -0.500000 0.052664
v -0.052664 -0.500000 -0.052664
v 0.052664 -0.500000 -0.052664
v 0.161843 -0.161843 -0.449778
v -0.161843 0.161843 0.449778
v -0.161843 0.449778 -0.161843
v -0.052664 0.052664 0.500000
v -0.052664 -0.052664 0.500000
v 0.052664 -0.052664 0.500000
v 0.052664 0.052664 0.500000
v -0.449778 -0.161843 -0.161844
v -0.074116 0.449778 -0.074116
v 0.161843 0.449778 -0.161843
v 0.074116 0.449778 -0.074116
v 0.161843 -0.449777 -0.161844
v 0.074116 -0.449778 -0.074116
v 0.161843 0.161843 0.449778
v 0.074116 0.074116 0.449778
v 0.449778 0.161843 0.161844
v 0.161843 0.161844 -0.449777
v -0.449778 0.161844 -0.161843
v 0.077559 0.470668 -0.077558
v 0.077559 0.077558 0.470668
v 0.077559 -0.470668 -0.077559
v -0.077559 0.470668 -0.077558
v -0.500000 0.052664 -0.052664
v -0.500000 -0.052664 -0.052664
v -0.500000 -0.052664 0.052664
v -0.500000 0.052664 0.052664
v 0.052664 0.052664 -0.500000
v 0.052664 -0.052664 -0.500000
v -0.052664 -0.052664 -0.500000
v -0.052664 0.052664 -0.500000
v 0.500000 0.052664 0.052664
v 0.500000 -0.052664 0.052664
v 0.500000 -0.052664 -0.052664
v 0.500000 0.052664 -0.052664
vt 0.592212 0.157788
vt 0.544979 0.169979
vt 0.544979 0.080021
vt 0.592212 0.092212
vt 0.592212 0.407788
vt 0.544979 0.419979
vt 0.544979 0.330021
vt 0.592212 0.342212
vt 0.592212 0.657788
vt 0.544979 0.669979
vt 0.544979 0.580021
vt 0.592212 0.592212
vt 0.705021 0.669979
vt 0.657788 0.657788
vt 0.657788 0.592212
vt 0.705021 0.580021
vt 0.782788 0.532788
vt 0.794979 0.580021
vt 0.717212 0.532788
vt 0.532788 0.032788
vt 0.455021 0.080021
vt 0.467212 0.032788
vt 0.455021 0.669979
vt 0.407788 0.657788
vt 0.407788 0.592212
vt 0.455021 0.580021
vt 0.455021 0.419979
vt 0.407788 0.407788
vt 0.407788 0.342212
vt 0.455021 0.330021
vt 0.455021 0.169979
vt 0.407788 0.157788
vt 0.407788 0.092212
vt 0.342212 0.657788
vt 0.294979 0.669979
vt 0.294979 0.580021
vt 0.342212 0.592212
vt 0.842212 0.532788
vt 0.842212 0.592212
vt 0.282788 0.532788
vt 0.205021 0.580021
vt 0.217212 0.532788
vt 0.205021 0.669979
vt 0.157788 0.657788
vt 0.157788 0.592212
vt 0.532788 0.282788
vt 0.467212 0.282788
vt 0.532788 0.782788
vt 0.592212 0.782788
vt 0.592212 0.842212
vt 0.544979 0.830021
vt 0.592212 0.907788
vt 0.544979 0.919979
vt 0.532788 0.532788
vt 0.592212 0.532788
vt 0.342212 0.532788
vt 0.467212 0.532788
vt 0.592212 0.282788
vt 0.455021 0.830021
vt 0.467212 0.782788
vt 0.455021 0.919979
vt 0.407788 0.907788
vt 0.407788 0.842212
vt 0.157788 0.717212
vt 0.157788 0.750000
vt 0.125000 0.717212
vt 0.592212 0.032788
vt 0.592212 0.000000
vt 0.625000 0.032788
vt 0.407788 0.217212
vt 0.407788 0.250000
vt 0.375000 0.217212
vt 0.842212 0.500000
vt 0.875000 0.532788
vt 0.407788 0.717212
vt 0.407788 0.750000
vt 0.375000 0.717212
vt 0.657788 0.717212
vt 0.657788 0.750000
vt 0.625000 0.717212
vt 0.407788 0.467212
vt 0.407788 0.500000
vt 0.375000 0.467212
vt 0.657788 0.532788
vt 0.625000 0.532788
vt 0.657788 0.500000
vt 0.407788 0.125000
vt 0.375000 0.125000
vt 0.375000 0.092212
vt 0.500000 0.032788
vt 0.500000 0.000000
vt 0.532788 0.000000
vt 0.592212 0.125000
vt 0.625000 0.125000
vt 0.625000 0.157788
vt 0.467212 0.217212
vt 0.532788 0.217212
vt 0.407788 0.375000
vt 0.375000 0.375000
vt 0.375000 0.342212
vt 0.592212 0.375000
vt 0.625000 0.375000
vt 0.625000 0.407788
vt 0.467212 0.467212
vt 0.532788 0.467212
vt 0.467212 0.717212
vt 0.532788 0.717212
vt 0.407788 0.875000
vt 0.375000 0.875000
vt 0.375000 0.842212
vt 0.592212 0.875000
vt 0.625000 0.875000
vt 0.625000 0.907788
vt 0.794979 0.669979
vt 0.782788 0.717212
vt 0.717212 0.717212
vt 0.282788 0.717212
vt 0.217212 0.717212
vt 0.532788 0.967212
vt 0.467212 0.967212
vt 0.125000 0.657788
vt 0.592212 0.967212
vt 0.592212 1.000000
vt 0.532788 1.000000
vt 0.875000 0.592212
vt 0.407788 0.282788
vt 0.157788 0.532788
vt 0.157788 0.500000
vt 0.217212 0.500000
vt 0.717212 0.500000
vt 0.407788 0.532788
vt 0.592212 0.717212
vt 0.407788 0.782788
vt 0.342212 0.717212
vt 0.342212 0.750000
vt 0.282788 0.750000
vt 0.842212 0.717212
vt 0.842212 0.750000
vt 0.782788 0.750000
vt 0.125000 0.592212
vt 0.125000 0.532788
vt 0.407788 0.967212
vt 0.467212 1.000000
vt 0.407788 1.000000
vt 0.842212 0.657788
vt 0.875000 0.657788
vt 0.875000 0.717212
vt 0.592212 0.217212
vt 0.282788 0.500000
vt 0.342212 0.500000
vt 0.782788 0.500000
vt 0.592212 0.467212
vt 0.217212 0.750000
vt 0.717212 0.750000
vt 0.729402 0.645598
vt 0.770598 0.645598
vt 0.770598 0.645598
vt 0.729402 0.645598
vt 0.229402 0.645598
vt 0.270598 0.645598
vt 0.270598 0.645598
vt 0.229402 0.645598
vt 0.479402 0.895598
vt 0.520598 0.895598
vt 0.520598 0.895598
vt 0.479402 0.895598
vt 0.479402 0.645598
vt 0.520598 0.645598
vt 0.520598 0.645598
vt 0.479402 0.645598
vt 0.479402 0.395598
vt 0.520598 0.395598
vt 0.520598 0.395598
vt 0.479402 0.395598
vt 0.407788 0.032788
vt 0.479402 0.145598
vt 0.520598 0.145598
vt 0.520598 0.145598
vt 0.479402 0.145598
vt 0.544979 0.580021
vt 0.455021 0.580021
vt 0.205021 0.580021
vt 0.205021 0.669979
vt 0.520598 0.104402
vt 0.520598 0.104402
vt 0.520598 0.604402
vt 0.479402 0.604402
vt 0.479402 0.604402
vt 0.520598 0.604402
vt 0.229402 0.604402
vt 0.229402 0.604402
vt 0.544979 0.330021
vt 0.455021 0.330021
vt 0.455021 0.830021
vt 0.455021 0.919979
vt 0.705021 0.669979
vt 0.794979 0.669979
vt 0.520598 0.354402
vt 0.479402 0.354402
vt 0.479402 0.354402
vt 0.520598 0.354402
vt 0.479402 0.854402
vt 0.479402 0.854402
vt 0.763166 0.638166
vt 0.736834 0.638166
vt 0.736834 0.611834
vt 0.763166 0.611834
vt 0.544979 0.080021
vt 0.455021 0.080021
vt 0.455021 0.669979
vt 0.294979 0.669979
vt 0.479402 0.104402
vt 0.479402 0.104402
vt 0.263166 0.638166
vt 0.236834 0.638166
vt 0.236834 0.611834
vt 0.263166 0.611834
vt 0.455021 0.419979
vt 0.544979 0.919979
vt 0.794979 0.580021
vt 0.513166 0.888166
vt 0.486834 0.888166
vt 0.486834 0.861834
vt 0.513166 0.861834
vt 0.455021 0.169979
vt 0.770598 0.604402
vt 0.705021 0.580021
vt 0.729402 0.604402
vt 0.294979 0.580021
vt 0.270598 0.604402
vt 0.544979 0.830021
vt 0.520598 0.854402
vt 0.544979 0.669979
vt 0.544979 0.419979
vt 0.544979 0.169979
vt 0.729402 0.604402
vt 0.520598 0.854402
vt 0.270598 0.604402
vt 0.770598 0.604402
vt 0.513166 0.138166
vt 0.486834 0.138166
vt 0.486834 0.111834
vt 0.513166 0.111834
vt 0.513166 0.388166
vt 0.486834 0.388166
vt 0.486834 0.361834
vt 0.513166 0.361834
vt 0.513166 0.638166
vt 0.486834 0.638166
vt 0.486834 0.611834
vt 0.513166 0.611834
vn -1.0000 0.0000 0.0000
vn 0.0000 0.0000 -1.0000
vn 1.0000 0.0000 0.0000
vn 0.0000 1.0000 0.0000
vn -0.0000 -1.0000 -0.0000
vn -0.0000 -0.0000 1.0000
vn -0.5774 -0.5774 0.5774
vn -0.5774 0.5774 0.5774
vn -0.5774 -0.5774 -0.5774
vn -0.5774 0.5774 -0.5774
vn 0.5774 -0.5774 0.5774
vn 0.5774 0.5774 0.5774
vn 0.5774 -0.5774 -0.5774
vn 0.5774 0.5774 -0.5774
vn -0.7071 -0.7071 -0.0000
vn -0.7071 -0.0000 0.7071
vn -0.7071 0.7071 0.0000
vn -0.7071 0.0000 -0.7071
vn 0.0000 -0.7071 -0.7071
vn 0.0000 0.7071 -0.7071
vn 0.7071 0.0000 -0.7071
vn 0.7071 -0.7071 -0.0000
vn 0.7071 0.7071 0.0000
vn 0.7071 -0.0000 0.7071
vn 0.0000 -0.7071 0.7071
vn 0.0000 0.7071 0.7071
vn 0.0000 -0.1626 0.9867
vn 0.0000 0.1626 0.9867
vn -0.9867 0.0000 -0.1626
vn -0.1626 -0.0000 0.9867
vn 0.9867 0.0000 0.1626
vn 0.1626 0.0000 -0.9867
vn 0.3386 -0.0000 0.9409
vn 0.9409 -0.3386 -0.0000
vn 0.1626 0.9867 0.0000
vn -0.1626 0.0000 -0.9867
vn -0.9867 0.1626 0.0000
vn 0.9409 0.0000 -0.3386
vn 0.0000 0.9409 0.3386
vn 0.0000 0.3386 -0.9409
vn -0.9867 0.0000 0.1626
vn 0.0000 -0.9867 -0.1626
vn -0.3386 0.0000 -0.9409
vn 0.3386 0.9409 0.0000
vn 0.0000 -0.3386 -0.9409
vn 0.1626 -0.0000 0.9867
vn -0.1626 -0.9867 -0.0000
vn 0.0000 0.9409 -0.3386
vn 0.9409 -0.0000 0.3386
vn 0.9409 0.3386 0.0000
vn 0.0000 -0.9867 0.1626
vn -0.3386 0.9409 0.0000
vn 0.9867 -0.1626 0.0000
vn 0.9867 0.0000 -0.1626
vn 0.0000 0.9867 0.1626
vn -0.9409 0.3386 0.0000
vn -0.9409 -0.0000 0.3386
vn -0.3386 -0.9409 -0.0000
vn 0.0000 0.1626 -0.9867
vn -0.1626 0.9867 0.0000
vn 0.0000 -0.3386 0.9409
vn 0.0000 -0.9409 -0.3386
vn 0.0000 -0.1626 -0.9867
vn 0.0000 0.9867 -0.1626
vn 0.0000 0.3386 0.9409
vn 0.3386 -0.9409 -0.0000
vn -0.3386 -0.0000 0.9409
vn 0.9867 0.1626 0.0000
vn 0.0000 -0.9409 0.3386
vn -0.9409 0.0000 -0.3386
vn 0.1626 -0.9867 -0.0000
vn -0.9409 -0.3386 -0.0000
vn 0.3386 0.0000 -0.9409
vn -0.7624 0.6471 0.0000
vn 0.0000 0.6471 0.7624
vn 0.7624 0.6471 0.0000
vn 0.0000 0.6471 -0.7624
vn 0.7624 -0.6471 0.0000
vn 0.0000 -0.6471 0.7624
vn -0.7624 -0.6471 0.0000
vn 0.0000 -0.6471 -0.7624
vn 0.0000 0.7624 0.6471
vn -0.7624 0.0000 0.6471
vn 0.0000 -0.7624 0.6471
vn 0.7624 0.0000 0.6471
vn 0.6471 0.7624 0.0000
vn 0.6471 -0.0000 0.7624
vn 0.6471 -0.7624 -0.0000
vn 0.6471 0.0000 -0.7624
vn 0.0000 0.7624 -0.6471
vn 0.7624 0.0000 -0.6471
vn 0.0000 -0.7624 -0.6471
vn -0.7624 0.0000 -0.6471
vn -0.6471 0.7624 0.0000
vn -0.6471 0.0000 -0.7624
vn -0.6471 -0.7624 -0.0000
vn -0.6471 -0.0000 0.7624
vn -0.9867 -0.1626 0.0000
usemtl None
s 1
f 1/1/1 2/2/1 3/3/1 4/4/1
f 5/5/2 6/6/2 7/7/2 8/8/2
f 9/9/3 10/10/3 11/11/3 12/12/3
f 13/13/4 14/14/4 15/15/4 16/16/4
f 17/17/4 18/18/4 16/16/4 19/19/4
f 20/20/1 3/3/1 21/21/1 22/22/1
f 23/23/3 24/24/3 25/25/3 26/26/3
f 27/27/2 28/28/2 29/29/2 30/30/2
f 31/31/1 32/32/1 33/33/1 21/21/1
f 34/34/5 35/35/5 36/36/5 37/37/5
f 17/17/4 38/38/4 39/39/4 18/18/4
f 40/40/5 36/36/5 41/41/5 42/42/5
f 43/43/5 44/44/5 45/45/5 41/41/5
f 46/46/2 7/7/2 30/30/2 47/47/2
f 48/48/6 49/49/6 50/50/6 51/51/6
f 52/52/6 53/53/6 51/51/6 50/50/6
f 54/54/3 55/55/3 12/12/3 11/11/3
f 40/40/5 56/56/5 37/37/5 36/36/5
f 54/54/3 11/11/3 26/26/3 57/57/3
f 46/46/2 58/58/2 8/8/2 7/7/2
f 48/48/6 51/51/6 59/59/6 60/60/6
f 61/61/6 62/62/6 63/63/6 59/59/6
f 64/64/7 65/65/7 66/66/7
f 67/67/8 68/68/8 69/69/8
f 70/70/9 71/71/9 72/72/9
f 38/38/10 58/73/10 73/74/10
f 74/75/11 75/76/11 76/77/11
f 77/78/12 49/79/12 78/80/12
f 79/81/13 80/82/13 56/83/13
f 81/84/14 55/85/14 82/86/14
f 33/33/15 32/87/15 45/88/15 44/89/15
f 20/20/16 22/90/16 83/91/16 84/92/16
f 1/1/17 4/93/17 85/94/17 39/95/17
f 86/96/18 87/97/18 46/46/18 47/47/18
f 29/29/19 28/98/19 40/99/19 42/100/19
f 5/5/20 8/101/20 17/102/20 19/103/20
f 88/104/21 89/105/21 54/54/21 57/57/21
f 25/25/22 24/24/22 34/34/22 37/37/22
f 9/9/23 12/12/23 15/15/23 14/14/23
f 90/106/24 91/107/24 48/48/24 60/60/24
f 63/63/25 62/108/25 92/109/25 93/110/25
f 52/52/26 50/111/26 94/112/26 95/113/26
f 96/114/4 95/115/4 94/116/4 13/13/4
f 35/35/5 93/117/5 92/118/5 43/43/5
f 53/53/6 84/119/6 83/120/6 61/61/6
f 10/10/3 91/107/3 90/106/3 23/23/3
f 6/6/2 89/105/2 88/104/2 27/27/2
f 2/2/1 87/97/1 86/96/1 31/31/1
f 44/44/15 64/64/15 66/66/15 33/121/15
f 84/119/16 68/122/16 67/123/16 20/124/16
f 39/39/17 38/38/17 73/74/17 1/125/17
f 47/47/18 71/126/18 70/70/18 86/96/18
f 42/42/19 72/127/19 71/128/19 29/129/19
f 19/19/20 81/84/20 82/86/20 5/130/20
f 57/57/21 80/131/21 79/81/21 88/104/21
f 37/37/22 56/56/22 80/131/22 25/25/22
f 14/14/23 77/78/23 78/132/23 9/9/23
f 60/60/24 75/133/24 74/75/24 90/106/24
f 93/117/25 76/134/25 75/135/25 63/136/25
f 95/115/26 69/137/26 68/138/26 52/139/26
f 72/127/15 45/45/15 32/140/15 70/141/15
f 65/142/16 83/120/16 22/143/16 66/144/16
f 69/137/17 85/145/17 4/146/17 67/147/17
f 58/58/18 46/46/18 87/97/18 73/148/18
f 56/56/19 40/40/19 28/149/19 79/150/19
f 38/38/20 17/17/20 8/151/20 58/73/20
f 55/55/21 54/54/21 89/105/21 82/152/21
f 76/134/22 34/34/22 24/24/22 74/75/22
f 81/84/23 15/15/23 12/12/23 55/55/23
f 49/49/24 48/48/24 91/107/24 78/132/24
f 64/64/25 92/118/25 62/153/25 65/65/25
f 77/78/26 94/116/26 50/154/26 49/79/26
f 96/114/4 85/145/4 69/137/4 95/115/4
f 81/84/4 19/19/4 16/16/4 15/15/4
f 14/14/4 13/13/4 94/116/4 77/78/4
f 97/155/27 98/156/27 99/157/27 100/158/27
f 35/35/5 34/34/5 76/134/5 93/117/5
f 72/127/5 42/42/5 41/41/5 45/45/5
f 44/44/5 43/43/5 92/118/5 64/64/5
f 101/159/28 102/160/28 103/161/28 104/162/28
f 53/53/6 52/52/6 68/122/6 84/119/6
f 75/133/6 60/60/6 59/59/6 63/63/6
f 62/62/6 61/61/6 83/120/6 65/142/6
f 105/163/29 106/164/29 107/165/29 108/166/29
f 10/10/3 9/9/3 78/132/3 91/107/3
f 80/131/3 57/57/3 26/26/3 25/25/3
f 24/24/3 23/23/3 90/106/3 74/75/3
f 109/167/30 110/168/30 111/169/30 112/170/30
f 6/6/2 5/5/2 82/152/2 89/105/2
f 71/126/2 47/47/2 30/30/2 29/29/2
f 28/28/2 27/27/2 88/104/2 79/81/2
f 113/171/31 114/172/31 115/173/31 116/174/31
f 2/2/1 1/1/1 73/148/1 87/97/1
f 66/175/1 22/22/1 21/21/1 33/33/1
f 32/32/1 31/31/1 86/96/1 70/70/1
f 117/176/32 118/177/32 119/178/32 120/179/32
f 20/20/1 67/67/1 4/4/1 3/3/1
f 26/26/33 11/11/33 121/180/33 122/181/33
f 43/43/34 41/41/34 123/182/34 124/183/34
f 118/177/35 125/184/35 126/185/35 119/178/35
f 127/186/36 128/187/36 129/188/36 130/189/36
f 131/190/37 101/159/37 104/162/37 132/191/37
f 30/30/38 7/7/38 133/192/38 134/193/38
f 61/61/39 59/59/39 135/194/39 136/195/39
f 96/114/40 13/13/40 137/196/40 138/197/40
f 139/198/41 140/199/41 141/200/41 142/201/41
f 143/202/42 105/163/42 108/166/42 144/203/42
f 145/204/4 146/205/4 147/206/4 148/207/4
f 21/21/43 3/3/43 149/208/43 150/209/43
f 23/23/44 26/26/44 122/181/44 151/210/44
f 35/35/45 43/43/45 124/183/45 152/211/45
f 125/184/46 153/212/46 154/213/46 126/185/46
f 128/187/47 109/167/47 112/170/47 129/188/47
f 155/214/5 156/215/5 157/216/5 158/217/5
f 27/27/48 30/30/48 134/193/48 159/218/48
f 53/53/49 61/61/49 136/195/49 160/219/49
f 18/18/50 96/114/50 138/197/50 161/220/50
f 140/199/51 113/171/51 116/174/51 141/200/51
f 162/221/6 163/222/6 164/223/6 165/224/6
f 31/31/52 21/21/52 150/209/52 166/225/52
f 85/145/4 96/114/4 18/18/4 39/39/4
f 161/220/4 138/197/4 99/157/4 167/226/4
f 138/197/4 137/196/4 100/158/4 99/157/4
f 137/196/4 168/227/4 169/228/4 100/158/4
f 168/227/4 161/220/4 167/226/4 169/228/4
f 170/229/5 152/211/5 103/161/5 171/230/5
f 152/211/5 124/183/5 104/162/5 103/161/5
f 124/183/5 123/182/5 132/191/5 104/162/5
f 123/182/5 170/229/5 171/230/5 132/191/5
f 172/231/6 160/219/6 107/165/6 173/232/6
f 160/219/6 136/195/6 108/166/6 107/165/6
f 136/195/6 135/194/6 144/203/6 108/166/6
f 135/194/6 172/231/6 173/232/6 144/203/6
f 121/180/3 174/233/3 111/169/3 130/189/3
f 174/233/3 151/210/3 112/170/3 111/169/3
f 151/210/3 122/181/3 129/188/3 112/170/3
f 122/181/3 121/180/3 130/189/3 129/188/3
f 133/192/2 175/234/2 115/173/2 142/201/2
f 175/234/2 159/218/2 116/174/2 115/173/2
f 159/218/2 134/193/2 141/200/2 116/174/2
f 134/193/2 133/192/2 142/201/2 141/200/2
f 149/208/1 176/235/1 119/178/1 126/185/1
f 176/235/1 166/225/1 120/179/1 119/178/1
f 166/225/1 150/209/1 154/213/1 120/179/1
f 150/209/1 149/208/1 126/185/1 154/213/1
f 177/236/53 97/155/53 100/158/53 169/228/53
f 178/237/54 143/202/54 144/203/54 173/232/54
f 114/172/55 139/198/55 142/201/55 115/173/55
f 13/13/56 16/16/56 168/227/56 137/196/56
f 59/59/57 51/51/57 172/231/57 135/194/57
f 3/3/58 2/2/58 176/235/58 149/208/58
f 179/238/59 131/190/59 132/191/59 171/230/59
f 110/168/60 127/186/60 130/189/60 111/169/60
f 41/41/61 36/36/61 170/229/61 123/182/61
f 7/7/62 6/6/62 175/234/62 133/192/62
f 180/239/63 177/236/63 169/228/63 167/226/63
f 181/240/1 182/241/1 183/242/1 184/243/1
f 106/164/64 178/237/64 173/232/64 107/165/64
f 16/16/65 18/18/65 161/220/65 168/227/65
f 11/11/66 10/10/66 174/233/66 121/180/66
f 2/2/67 31/31/67 166/225/67 176/235/67
f 185/244/2 186/245/2 187/246/2 188/247/2
f 102/160/68 179/238/68 171/230/68 103/161/68
f 51/51/69 53/53/69 160/219/69 172/231/69
f 6/6/70 27/27/70 159/218/70 175/234/70
f 189/248/3 190/249/3 191/250/3 192/251/3
f 153/212/71 117/176/71 120/179/71 154/213/71
f 36/36/72 35/35/72 152/211/72 170/229/72
f 10/10/73 23/23/73 151/210/73 174/233/73
f 145/204/74 148/207/74 180/239/74 98/156/74
f 146/205/75 145/204/75 98/156/75 97/155/75
f 147/206/76 146/205/76 97/155/76 177/236/76
f 148/207/77 147/206/77 177/236/77 180/239/77
f 155/214/78 158/217/78 179/238/78 102/160/78
f 156/215/79 155/214/79 102/160/79 101/159/79
f 157/216/80 156/215/80 101/159/80 131/190/80
f 158/217/81 157/216/81 131/190/81 179/238/81
f 162/221/82 165/224/82 178/237/82 106/164/82
f 163/222/83 162/221/83 106/164/83 105/163/83
f 164/223/84 163/222/84 105/163/84 143/202/84
f 165/224/85 164/223/85 143/202/85 178/237/85
f 189/248/86 192/251/86 127/186/86 110/168/86
f 190/249/87 189/248/87 110/168/87 109/167/87
f 191/250/88 190/249/88 109/167/88 128/187/88
f 192/251/89 191/250/89 128/187/89 127/186/89
f 185/244/90 188/247/90 139/198/90 114/172/90
f 186/245/91 185/244/91 114/172/91 113/171/91
f 187/246/92 186/245/92 113/171/92 140/199/92
f 188/247/93 187/246/93 140/199/93 139/198/93
f 181/240/94 184/243/94 125/184/94 118/177/94
f 182/241/95 181/240/95 118/177/95 117/176/95
f 183/242/96 182/241/96 117/176/96 153/212/96
f 184/243/97 183/242/97 153/212/97 125/184/97
f 98/156/98 180/239/98 167/226/98 99/157/98
